<?xml version="1.0" encoding="us-ascii" standalone="no"?><svg xmlns="http://www.w3.org/2000/svg" xmlns:xlink="http://www.w3.org/1999/xlink" contentStyleType="text/css" height="765.6px" preserveAspectRatio="none" style="width:3994px;height:765px;background:#FFFFFF;" version="1.1" viewBox="0 0 3994 765" width="3994.4px" zoomAndPan="magnify"><defs/><g><!--cluster Model--><g id="cluster_Model"><path d="M668.4,44.8109 L704.4,44.8109 A3,3 0 0 1 706.4,46.8109 L712,64.5078 L2663.6,64.5078 A2,2 0 0 1 2665.6,66.5078 L2665.6,722.0109 A2,2 0 0 1 2663.6,724.0109 L668.4,724.0109 A2,2 0 0 1 666.4,722.0109 L666.4,46.8109 A2,2 0 0 1 668.4,44.8109 " fill="#FFFFFF" style="stroke:#000000;stroke-width:0.8000000000000002;"/><line style="stroke:#000000;stroke-width:0.8000000000000002;" x1="666.4" x2="712" y1="64.5078" y2="64.5078"/><text fill="#000000" font-family="Hack" font-size="11.2" font-weight="bold" lengthAdjust="spacing" textLength="35.2" x="669.6" y="58.4969">Model</text></g><!--cluster TruckDerivedClasses--><g id="cluster_TruckDerivedClasses"><path d="M1604.4,87.6109 L1725.2,87.6109 A3,3 0 0 1 1727.2,89.6109 L1732.8,107.3078 L2644.4,107.3078 A2,2 0 0 1 2646.4,109.3078 L2646.4,553.2109 A2,2 0 0 1 2644.4,555.2109 L1604.4,555.2109 A2,2 0 0 1 1602.4,553.2109 L1602.4,89.6109 A2,2 0 0 1 1604.4,87.6109 " fill="#FFFFFF" style="stroke:#000000;stroke-width:0.8000000000000002;"/><line style="stroke:#000000;stroke-width:0.8000000000000002;" x1="1602.4" x2="1732.8" y1="107.3078" y2="107.3078"/><text fill="#000000" font-family="Hack" font-size="11.2" font-weight="bold" lengthAdjust="spacing" textLength="120" x="1605.6" y="101.2969">TruckDerivedClasses</text></g><!--cluster Enums--><g id="cluster_Enums"><path d="M2686.8,156.4109 L2725.2,156.4109 A3,3 0 0 1 2727.2,158.4109 L2732.8,176.1078 L3339.6,176.1078 A2,2 0 0 1 3341.6,178.1078 L3341.6,560.8109 A2,2 0 0 1 3339.6,562.8109 L2686.8,562.8109 A2,2 0 0 1 2684.8,560.8109 L2684.8,158.4109 A2,2 0 0 1 2686.8,156.4109 " fill="#FFFFFF" style="stroke:#000000;stroke-width:0.8000000000000002;"/><line style="stroke:#000000;stroke-width:0.8000000000000002;" x1="2684.8" x2="2732.8" y1="176.1078" y2="176.1078"/><text fill="#000000" font-family="Hack" font-size="11.2" font-weight="bold" lengthAdjust="spacing" textLength="37.6" x="2688" y="170.0969">Enums</text></g><!--cluster Interfaces--><g id="cluster_Interfaces"><path d="M46.8,155.6109 L104.4,155.6109 A3,3 0 0 1 106.4,157.6109 L112,175.3078 L645.2,175.3078 A2,2 0 0 1 647.2,177.3078 L647.2,552.4109 A2,2 0 0 1 645.2,554.4109 L46.8,554.4109 A2,2 0 0 1 44.8,552.4109 L44.8,157.6109 A2,2 0 0 1 46.8,155.6109 " fill="#FFFFFF" style="stroke:#000000;stroke-width:0.8000000000000002;"/><line style="stroke:#000000;stroke-width:0.8000000000000002;" x1="44.8" x2="112" y1="175.3078" y2="175.3078"/><text fill="#000000" font-family="Hack" font-size="11.2" font-weight="bold" lengthAdjust="spacing" textLength="56.8" x="48" y="169.2969">Interfaces</text></g><!--cluster Parking--><g id="cluster_Parking"><path d="M3362.8,87.6109 L3406,87.6109 A3,3 0 0 1 3408,89.6109 L3413.6,107.3078 L3950.8,107.3078 A2,2 0 0 1 3952.8,109.3078 L3952.8,574.8109 A2,2 0 0 1 3950.8,576.8109 L3362.8,576.8109 A2,2 0 0 1 3360.8,574.8109 L3360.8,89.6109 A2,2 0 0 1 3362.8,87.6109 " fill="#FFFFFF" style="stroke:#000000;stroke-width:0.8000000000000002;"/><line style="stroke:#000000;stroke-width:0.8000000000000002;" x1="3360.8" x2="3413.6" y1="107.3078" y2="107.3078"/><text fill="#000000" font-family="Hack" font-size="11.2" font-weight="bold" lengthAdjust="spacing" textLength="42.4" x="3364" y="101.2969">Parking</text></g><!--class MainController--><g id="elem_MainController"><rect codeLine="1" fill="#FFFFFF" height="284.6875" id="MainController" rx="2" ry="2" style="stroke:#000000;stroke-width:0.8000000000000002;" width="372.8" x="1216.8" y="74.4109"/><ellipse cx="1363.6" cy="91.1797" fill="#FFFFFF" rx="6.4" ry="6.4" style="stroke:#000000;stroke-width:0.8000000000000002;"/><path d="M1364.4625,89.0422 Q1364.525,88.9422 1364.6125,88.8922 Q1364.7125,88.8422 1364.8125,88.8422 Q1364.9875,88.8422 1365.1,88.9672 Q1365.2125,89.0922 1365.2125,89.3797 L1365.2125,90.0547 Q1365.2125,90.3422 1365.1,90.4672 Q1364.9875,90.5922 1364.8125,90.5922 Q1364.65,90.5922 1364.55,90.5047 Q1364.45,90.4172 1364.4,90.1672 Q1364.375,90.0047 1364.3,89.9172 Q1364.1375,89.7297 1363.85,89.6297 Q1363.5625,89.5297 1363.275,89.5297 Q1362.9125,89.5297 1362.6125,89.6922 Q1362.3125,89.8422 1362.075,90.1922 Q1361.85,90.5422 1361.85,91.0297 L1361.85,91.5422 Q1361.85,92.1172 1362.2625,92.5047 Q1362.6875,92.8922 1363.4375,92.8922 Q1363.8875,92.8922 1364.1875,92.7797 Q1364.375,92.7047 1364.575,92.4922 Q1364.7,92.3672 1364.7625,92.3297 Q1364.8375,92.2922 1364.925,92.2922 Q1365.0875,92.2922 1365.2125,92.4172 Q1365.3375,92.5422 1365.3375,92.7047 Q1365.3375,92.8672 1365.1625,93.0547 Q1364.925,93.3297 1364.55,93.4797 Q1364.05,93.6922 1363.4375,93.6922 Q1362.725,93.6922 1362.1625,93.4047 Q1361.7,93.1672 1361.375,92.6672 Q1361.05,92.1547 1361.05,91.5547 L1361.05,91.0172 Q1361.05,90.3922 1361.3375,89.8547 Q1361.6375,89.3047 1362.15,89.0172 Q1362.6625,88.7297 1363.2375,88.7297 Q1363.5875,88.7297 1363.8875,88.8047 Q1364.2,88.8797 1364.4625,89.0422 Z " fill="#000000"/><text fill="#666666" font-family="Hack" font-size="8" font-style="italic" lengthAdjust="spacing" textLength="46.4" x="1390" y="87.0438">&#171;Singleton&#187;</text><text fill="#000000" font-family="Hack" font-size="11.2" lengthAdjust="spacing" textLength="73.6" x="1376.4" y="101.1375">MainController</text><line style="stroke:#000000;stroke-width:0.8000000000000002;" x1="1217.6" x2="1588.8" y1="107.9484" y2="107.9484"/><text fill="#000000" font-family="Hack" font-size="11.2" lengthAdjust="spacing" textLength="176" x="1221.6" y="123.2344">+&#171;const&#187; _serializationPath : string</text><text fill="#000000" font-family="Hack" font-size="11.2" lengthAdjust="spacing" textLength="210.4" x="1221.6" y="138.1313">+&#171;event&#187; FinishedChanges : FinChanges</text><text fill="#000000" font-family="Hack" font-size="11.2" lengthAdjust="spacing" textLength="201.6" x="1221.6" y="153.0281">+ObservableCollection truckList&lt;Truck&gt;</text><text fill="#000000" font-family="Hack" font-size="11.2" lengthAdjust="spacing" textLength="207.2" x="1221.6" y="167.925">+ObservableCollection driverList&lt;Driver&gt;</text><text fill="#000000" font-family="Hack" font-size="11.2" lengthAdjust="spacing" textLength="193.6" x="1221.6" y="182.8219">+ObservableCollection taskList&lt;Task&gt;</text><line style="stroke:#000000;stroke-width:0.8000000000000002;" x1="1217.6" x2="1588.8" y1="188.8328" y2="188.8328"/><text fill="#000000" font-family="Hack" font-size="11.2" lengthAdjust="spacing" textLength="87.2" x="1221.6" y="204.1188">+Initialize () : void</text><text fill="#000000" font-family="Hack" font-size="11.2" lengthAdjust="spacing" textLength="90.4" x="1221.6" y="219.0156">+Serialize () : void</text><text fill="#000000" font-family="Hack" font-size="11.2" lengthAdjust="spacing" textLength="155.2" x="1221.6" y="233.9125">+RefreshParkingSpots () : void</text><text fill="#000000" font-family="Hack" font-size="11.2" lengthAdjust="spacing" textLength="358.4" x="1221.6" y="248.8094">+TruckAdditionRequested (sender: TruckListVM, dto: TruckDTO) : void</text><text fill="#000000" font-family="Hack" font-size="11.2" lengthAdjust="spacing" textLength="346.4" x="1221.6" y="263.7063">+TaskAdditionRequested (sender: TaskListVM, dto: TaskDTO) : void</text><text fill="#000000" font-family="Hack" font-size="11.2" lengthAdjust="spacing" textLength="363.2" x="1221.6" y="278.6031">+DriverAdditionRequested (sender: DriverListVM, dto: DriverDTO) : void</text><text fill="#000000" font-family="Hack" font-size="11.2" lengthAdjust="spacing" textLength="265.6" x="1221.6" y="293.5">+ReplaceTruck (target: object, replace: object) : void</text><text fill="#000000" font-family="Hack" font-size="11.2" lengthAdjust="spacing" textLength="267.2" x="1221.6" y="308.3969">+ReplaceDriver (target: object, replace: object) : void</text><text fill="#000000" font-family="Hack" font-size="11.2" lengthAdjust="spacing" textLength="184.8" x="1221.6" y="323.2938">+RemoveTruck (target: object) : void</text><text fill="#000000" font-family="Hack" font-size="11.2" lengthAdjust="spacing" textLength="186.4" x="1221.6" y="338.1906">+RemoveDriver (target: object) : void</text><text fill="#000000" font-family="Hack" font-size="11.2" lengthAdjust="spacing" textLength="152" x="1221.6" y="353.0875">+OnChangesFinished () : void</text></g><!--class Cargo--><g id="elem_Cargo"><rect codeLine="10" fill="#FFFFFF" height="184.6656" id="Cargo" rx="2" ry="2" style="stroke:#000000;stroke-width:0.8000000000000002;" width="217.6" x="689.6" y="410.4109"/><ellipse cx="780" cy="421.8594" fill="#FFFFFF" rx="6.4" ry="6.4" style="stroke:#000000;stroke-width:0.8000000000000002;"/><path d="M780.8625,419.7219 Q780.925,419.6219 781.0125,419.5719 Q781.1125,419.5219 781.2125,419.5219 Q781.3875,419.5219 781.5,419.6469 Q781.6125,419.7719 781.6125,420.0594 L781.6125,420.7344 Q781.6125,421.0219 781.5,421.1469 Q781.3875,421.2719 781.2125,421.2719 Q781.05,421.2719 780.95,421.1844 Q780.85,421.0969 780.8,420.8469 Q780.775,420.6844 780.7,420.5969 Q780.5375,420.4094 780.25,420.3094 Q779.9625,420.2094 779.675,420.2094 Q779.3125,420.2094 779.0125,420.3719 Q778.7125,420.5219 778.475,420.8719 Q778.25,421.2219 778.25,421.7094 L778.25,422.2219 Q778.25,422.7969 778.6625,423.1844 Q779.0875,423.5719 779.8375,423.5719 Q780.2875,423.5719 780.5875,423.4594 Q780.775,423.3844 780.975,423.1719 Q781.1,423.0469 781.1625,423.0094 Q781.2375,422.9719 781.325,422.9719 Q781.4875,422.9719 781.6125,423.0969 Q781.7375,423.2219 781.7375,423.3844 Q781.7375,423.5469 781.5625,423.7344 Q781.325,424.0094 780.95,424.1594 Q780.45,424.3719 779.8375,424.3719 Q779.125,424.3719 778.5625,424.0844 Q778.1,423.8469 777.775,423.3469 Q777.45,422.8344 777.45,422.2344 L777.45,421.6969 Q777.45,421.0719 777.7375,420.5344 Q778.0375,419.9844 778.55,419.6969 Q779.0625,419.4094 779.6375,419.4094 Q779.9875,419.4094 780.2875,419.4844 Q780.6,419.5594 780.8625,419.7219 Z " fill="#000000"/><text fill="#000000" font-family="Hack" font-size="11.2" lengthAdjust="spacing" textLength="31.2" x="792.8" y="426.4969">Cargo</text><line style="stroke:#000000;stroke-width:0.8000000000000002;" x1="690.4" x2="906.4" y1="433.3078" y2="433.3078"/><text fill="#000000" font-family="Hack" font-size="11.2" lengthAdjust="spacing" textLength="195.2" x="694.4" y="448.5938">+Weight : double { get; protected set; }</text><text fill="#000000" font-family="Hack" font-size="11.2" lengthAdjust="spacing" textLength="197.6" x="694.4" y="463.4906">+Volume : double { get; protected set; }</text><text fill="#000000" font-family="Hack" font-size="11.2" lengthAdjust="spacing" textLength="198.4" x="694.4" y="478.3875">+Amount : double { get; protected set; }</text><text fill="#000000" font-family="Hack" font-size="11.2" lengthAdjust="spacing" textLength="208" x="694.4" y="493.2844">+Type : CargoType { get; protected set; }</text><text fill="#000000" font-family="Hack" font-size="11.2" lengthAdjust="spacing" textLength="195.2" x="694.4" y="508.1813">+Weight : double { get; protected set; }</text><text fill="#000000" font-family="Hack" font-size="11.2" lengthAdjust="spacing" textLength="197.6" x="694.4" y="523.0781">+Volume : double { get; protected set; }</text><text fill="#000000" font-family="Hack" font-size="11.2" lengthAdjust="spacing" textLength="198.4" x="694.4" y="537.975">+Amount : double { get; protected set; }</text><text fill="#000000" font-family="Hack" font-size="11.2" lengthAdjust="spacing" textLength="208" x="694.4" y="552.8719">+Type : CargoType { get; protected set; }</text><line style="stroke:#000000;stroke-width:0.8000000000000002;" x1="690.4" x2="906.4" y1="558.8828" y2="558.8828"/><text fill="#000000" font-family="Hack" font-size="11.2" lengthAdjust="spacing" textLength="152.8" x="694.4" y="574.1688">+&#171;override&#187; ToString() : string</text><text fill="#000000" font-family="Hack" font-size="11.2" lengthAdjust="spacing" textLength="152.8" x="694.4" y="589.0656">+&#171;override&#187; ToString() : string</text></g><!--class CargoType--><g id="elem_CargoType"><rect codeLine="8" fill="#FFFFFF" height="65.4906" id="CargoType" rx="2" ry="2" style="stroke:#000000;stroke-width:0.8000000000000002;" width="140" x="728.4" y="645.6109"/><ellipse cx="767.2" cy="657.0594" fill="#FFFFFF" rx="6.4" ry="6.4" style="stroke:#000000;stroke-width:0.8000000000000002;"/><path d="M766.775,657.4844 L766.775,658.6594 L768.825,658.6594 L768.825,658.2219 Q768.825,657.9344 768.9375,657.8094 Q769.05,657.6844 769.225,657.6844 Q769.4,657.6844 769.5125,657.8094 Q769.625,657.9344 769.625,658.2219 L769.625,659.4594 L765.85,659.4594 Q765.5625,659.4594 765.4375,659.3469 Q765.3125,659.2344 765.3125,659.0594 Q765.3125,658.8844 765.4375,658.7719 Q765.5625,658.6594 765.85,658.6594 L765.975,658.6594 L765.975,655.5219 L765.85,655.5219 Q765.5625,655.5219 765.4375,655.4094 Q765.3125,655.2969 765.3125,655.1219 Q765.3125,654.9469 765.4375,654.8344 Q765.5625,654.7219 765.85,654.7219 L769.45,654.7219 L769.45,655.9469 Q769.45,656.2344 769.3375,656.3594 Q769.225,656.4719 769.05,656.4719 Q768.8625,656.4719 768.75,656.3594 Q768.65,656.2344 768.65,655.9469 L768.65,655.5219 L766.775,655.5219 L766.775,656.6844 L767.4875,656.6844 Q767.4875,656.3719 767.5375,656.2844 Q767.6625,656.0844 767.8875,656.0844 Q768.0625,656.0844 768.175,656.2094 Q768.2875,656.3344 768.2875,656.6219 L768.2875,657.5469 Q768.2875,657.8094 768.225,657.8969 Q768.1,658.0844 767.8875,658.0844 Q767.6625,658.0844 767.5375,657.8844 Q767.4875,657.7969 767.4875,657.4844 L766.775,657.4844 Z " fill="#000000"/><text fill="#000000" font-family="Hack" font-size="11.2" lengthAdjust="spacing" textLength="56.8" x="780" y="661.6969">CargoType</text><line style="stroke:#000000;stroke-width:0.8000000000000002;" x1="729.2" x2="867.6" y1="668.5078" y2="668.5078"/><text fill="#000000" font-family="Hack" font-size="11.2" lengthAdjust="spacing" textLength="109.6" x="733.2" y="683.7938">RequiresRefrigerator,</text><text fill="#000000" font-family="Hack" font-size="11.2" lengthAdjust="spacing" textLength="130.4" x="733.2" y="698.6906">DoesNotNeedRefrigerator</text><line style="stroke:#000000;stroke-width:0.8000000000000002;" x1="729.2" x2="867.6" y1="704.7016" y2="704.7016"/></g><!--class Driver--><g id="elem_Driver"><rect codeLine="1" fill="#FFFFFF" height="184.6656" id="Driver" rx="2" ry="2" style="stroke:#000000;stroke-width:0.8000000000000002;" width="233.6" x="955.2" y="124.4109"/><ellipse cx="1054" cy="135.8594" fill="#FFFFFF" rx="6.4" ry="6.4" style="stroke:#000000;stroke-width:0.8000000000000002;"/><path d="M1054.8625,133.7219 Q1054.925,133.6219 1055.0125,133.5719 Q1055.1125,133.5219 1055.2125,133.5219 Q1055.3875,133.5219 1055.5,133.6469 Q1055.6125,133.7719 1055.6125,134.0594 L1055.6125,134.7344 Q1055.6125,135.0219 1055.5,135.1469 Q1055.3875,135.2719 1055.2125,135.2719 Q1055.05,135.2719 1054.95,135.1844 Q1054.85,135.0969 1054.8,134.8469 Q1054.775,134.6844 1054.7,134.5969 Q1054.5375,134.4094 1054.25,134.3094 Q1053.9625,134.2094 1053.675,134.2094 Q1053.3125,134.2094 1053.0125,134.3719 Q1052.7125,134.5219 1052.475,134.8719 Q1052.25,135.2219 1052.25,135.7094 L1052.25,136.2219 Q1052.25,136.7969 1052.6625,137.1844 Q1053.0875,137.5719 1053.8375,137.5719 Q1054.2875,137.5719 1054.5875,137.4594 Q1054.775,137.3844 1054.975,137.1719 Q1055.1,137.0469 1055.1625,137.0094 Q1055.2375,136.9719 1055.325,136.9719 Q1055.4875,136.9719 1055.6125,137.0969 Q1055.7375,137.2219 1055.7375,137.3844 Q1055.7375,137.5469 1055.5625,137.7344 Q1055.325,138.0094 1054.95,138.1594 Q1054.45,138.3719 1053.8375,138.3719 Q1053.125,138.3719 1052.5625,138.0844 Q1052.1,137.8469 1051.775,137.3469 Q1051.45,136.8344 1051.45,136.2344 L1051.45,135.6969 Q1051.45,135.0719 1051.7375,134.5344 Q1052.0375,133.9844 1052.55,133.6969 Q1053.0625,133.4094 1053.6375,133.4094 Q1053.9875,133.4094 1054.2875,133.4844 Q1054.6,133.5594 1054.8625,133.7219 Z " fill="#000000"/><text fill="#000000" font-family="Hack" font-size="11.2" lengthAdjust="spacing" textLength="30.4" x="1066.8" y="140.4969">Driver</text><line style="stroke:#000000;stroke-width:0.8000000000000002;" x1="956" x2="1188" y1="147.3078" y2="147.3078"/><text fill="#000000" font-family="Hack" font-size="11.2" lengthAdjust="spacing" textLength="148.8" x="960" y="162.5938">+Id : string { get; private set; }</text><text fill="#000000" font-family="Hack" font-size="11.2" lengthAdjust="spacing" textLength="224" x="960" y="177.4906">+AssignedTruckId : string { get; private set; }</text><text fill="#000000" font-family="Hack" font-size="11.2" lengthAdjust="spacing" textLength="191.2" x="960" y="192.3875">+FirstName : string { get; private set; }</text><text fill="#000000" font-family="Hack" font-size="11.2" lengthAdjust="spacing" textLength="201.6" x="960" y="207.2844">+MiddleName : string { get; private set; }</text><text fill="#000000" font-family="Hack" font-size="11.2" lengthAdjust="spacing" textLength="190.4" x="960" y="222.1813">+LastName : string { get; private set; }</text><text fill="#000000" font-family="Hack" font-size="11.2" lengthAdjust="spacing" textLength="156.8" x="960" y="237.0781">+Rating : int { get; private set; }</text><text fill="#000000" font-family="Hack" font-size="11.2" lengthAdjust="spacing" textLength="186.4" x="960" y="251.975">+Category : string { get; private set; }</text><text fill="#000000" font-family="Hack" font-size="11.2" lengthAdjust="spacing" textLength="124" x="960" y="266.8719">+GetString : string &#171;get&#187;</text><line style="stroke:#000000;stroke-width:0.8000000000000002;" x1="956" x2="1188" y1="272.8828" y2="272.8828"/><text fill="#000000" font-family="Hack" font-size="11.2" lengthAdjust="spacing" textLength="168.8" x="960" y="288.1688">+SetTruckID (value : string) : void</text><text fill="#000000" font-family="Hack" font-size="11.2" lengthAdjust="spacing" textLength="152.8" x="960" y="303.0656">+&#171;override&#187; ToString() : string</text></g><!--class Route--><g id="elem_Route"><rect codeLine="18" fill="#FFFFFF" height="154.8719" id="Route" rx="2" ry="2" style="stroke:#000000;stroke-width:0.8000000000000002;" width="206.4" x="941.6" y="424.8109"/><ellipse cx="1026.8" cy="436.2594" fill="#FFFFFF" rx="6.4" ry="6.4" style="stroke:#000000;stroke-width:0.8000000000000002;"/><path d="M1027.6625,434.1219 Q1027.725,434.0219 1027.8125,433.9719 Q1027.9125,433.9219 1028.0125,433.9219 Q1028.1875,433.9219 1028.3,434.0469 Q1028.4125,434.1719 1028.4125,434.4594 L1028.4125,435.1344 Q1028.4125,435.4219 1028.3,435.5469 Q1028.1875,435.6719 1028.0125,435.6719 Q1027.85,435.6719 1027.75,435.5844 Q1027.65,435.4969 1027.6,435.2469 Q1027.575,435.0844 1027.5,434.9969 Q1027.3375,434.8094 1027.05,434.7094 Q1026.7625,434.6094 1026.475,434.6094 Q1026.1125,434.6094 1025.8125,434.7719 Q1025.5125,434.9219 1025.275,435.2719 Q1025.05,435.6219 1025.05,436.1094 L1025.05,436.6219 Q1025.05,437.1969 1025.4625,437.5844 Q1025.8875,437.9719 1026.6375,437.9719 Q1027.0875,437.9719 1027.3875,437.8594 Q1027.575,437.7844 1027.775,437.5719 Q1027.9,437.4469 1027.9625,437.4094 Q1028.0375,437.3719 1028.125,437.3719 Q1028.2875,437.3719 1028.4125,437.4969 Q1028.5375,437.6219 1028.5375,437.7844 Q1028.5375,437.9469 1028.3625,438.1344 Q1028.125,438.4094 1027.75,438.5594 Q1027.25,438.7719 1026.6375,438.7719 Q1025.925,438.7719 1025.3625,438.4844 Q1024.9,438.2469 1024.575,437.7469 Q1024.25,437.2344 1024.25,436.6344 L1024.25,436.0969 Q1024.25,435.4719 1024.5375,434.9344 Q1024.8375,434.3844 1025.35,434.0969 Q1025.8625,433.8094 1026.4375,433.8094 Q1026.7875,433.8094 1027.0875,433.8844 Q1027.4,433.9594 1027.6625,434.1219 Z " fill="#000000"/><text fill="#000000" font-family="Hack" font-size="11.2" lengthAdjust="spacing" textLength="30.4" x="1039.6" y="440.8969">Route</text><line style="stroke:#000000;stroke-width:0.8000000000000002;" x1="942.4" x2="1147.2" y1="447.7078" y2="447.7078"/><text fill="#000000" font-family="Hack" font-size="11.2" lengthAdjust="spacing" textLength="170.4" x="946.4" y="462.9938">+Origin : string { get; private set; }</text><text fill="#000000" font-family="Hack" font-size="11.2" lengthAdjust="spacing" textLength="196.8" x="946.4" y="477.8906">+Destination : string { get; private set; }</text><text fill="#000000" font-family="Hack" font-size="11.2" lengthAdjust="spacing" textLength="170.4" x="946.4" y="492.7875">+Origin : string { get; private set; }</text><text fill="#000000" font-family="Hack" font-size="11.2" lengthAdjust="spacing" textLength="196.8" x="946.4" y="507.6844">+Destination : string { get; private set; }</text><line style="stroke:#000000;stroke-width:0.8000000000000002;" x1="942.4" x2="1147.2" y1="513.6953" y2="513.6953"/><text fill="#000000" font-family="Hack" font-size="11.2" lengthAdjust="spacing" textLength="95.2" x="946.4" y="528.9813">+GetTime() : string</text><text fill="#000000" font-family="Hack" font-size="11.2" lengthAdjust="spacing" textLength="100.8" x="946.4" y="543.8781">+GetRoute() : string</text><text fill="#000000" font-family="Hack" font-size="11.2" lengthAdjust="spacing" textLength="95.2" x="946.4" y="558.775">+GetTime() : string</text><text fill="#000000" font-family="Hack" font-size="11.2" lengthAdjust="spacing" textLength="100.8" x="946.4" y="573.6719">+GetRoute() : string</text></g><!--class Task--><g id="elem_Task"><rect codeLine="1" fill="#FFFFFF" height="95.2844" id="Task" rx="2" ry="2" style="stroke:#000000;stroke-width:0.8000000000000002;" width="234.4" x="686" y="169.2109"/><ellipse cx="788" cy="180.6594" fill="#FFFFFF" rx="6.4" ry="6.4" style="stroke:#000000;stroke-width:0.8000000000000002;"/><path d="M788.8625,178.5219 Q788.925,178.4219 789.0125,178.3719 Q789.1125,178.3219 789.2125,178.3219 Q789.3875,178.3219 789.5,178.4469 Q789.6125,178.5719 789.6125,178.8594 L789.6125,179.5344 Q789.6125,179.8219 789.5,179.9469 Q789.3875,180.0719 789.2125,180.0719 Q789.05,180.0719 788.95,179.9844 Q788.85,179.8969 788.8,179.6469 Q788.775,179.4844 788.7,179.3969 Q788.5375,179.2094 788.25,179.1094 Q787.9625,179.0094 787.675,179.0094 Q787.3125,179.0094 787.0125,179.1719 Q786.7125,179.3219 786.475,179.6719 Q786.25,180.0219 786.25,180.5094 L786.25,181.0219 Q786.25,181.5969 786.6625,181.9844 Q787.0875,182.3719 787.8375,182.3719 Q788.2875,182.3719 788.5875,182.2594 Q788.775,182.1844 788.975,181.9719 Q789.1,181.8469 789.1625,181.8094 Q789.2375,181.7719 789.325,181.7719 Q789.4875,181.7719 789.6125,181.8969 Q789.7375,182.0219 789.7375,182.1844 Q789.7375,182.3469 789.5625,182.5344 Q789.325,182.8094 788.95,182.9594 Q788.45,183.1719 787.8375,183.1719 Q787.125,183.1719 786.5625,182.8844 Q786.1,182.6469 785.775,182.1469 Q785.45,181.6344 785.45,181.0344 L785.45,180.4969 Q785.45,179.8719 785.7375,179.3344 Q786.0375,178.7844 786.55,178.4969 Q787.0625,178.2094 787.6375,178.2094 Q787.9875,178.2094 788.2875,178.2844 Q788.6,178.3594 788.8625,178.5219 Z " fill="#000000"/><text fill="#000000" font-family="Hack" font-size="11.2" lengthAdjust="spacing" textLength="24.8" x="800.8" y="185.2969">Task</text><line style="stroke:#000000;stroke-width:0.8000000000000002;" x1="686.8" x2="919.6" y1="192.1078" y2="192.1078"/><text fill="#000000" font-family="Hack" font-size="11.2" lengthAdjust="spacing" textLength="168.8" x="690.8" y="207.3938">+Name : string { get; private set; }</text><text fill="#000000" font-family="Hack" font-size="11.2" lengthAdjust="spacing" textLength="223.2" x="690.8" y="222.2906">+TruckExecutorID : string { get; private set; }</text><text fill="#000000" font-family="Hack" font-size="11.2" lengthAdjust="spacing" textLength="224.8" x="690.8" y="237.1875">+DriverExecutorID : string { get; private set; }</text><line style="stroke:#000000;stroke-width:0.8000000000000002;" x1="686.8" x2="919.6" y1="243.1984" y2="243.1984"/><text fill="#000000" font-family="Hack" font-size="11.2" lengthAdjust="spacing" textLength="152.8" x="690.8" y="258.4844">+&#171;override&#187; ToString() : string</text></g><!--class Truck--><g id="elem_Truck"><rect codeLine="1" fill="#FFFFFF" height="199.5625" id="Truck" rx="2" ry="2" style="stroke:#000000;stroke-width:0.8000000000000002;" width="234.4" x="2006.8" y="117.2109"/><ellipse cx="2106.8" cy="128.6594" fill="#FFFFFF" rx="6.4" ry="6.4" style="stroke:#000000;stroke-width:0.8000000000000002;"/><path d="M2107.6625,126.5219 Q2107.725,126.4219 2107.8125,126.3719 Q2107.9125,126.3219 2108.0125,126.3219 Q2108.1875,126.3219 2108.3,126.4469 Q2108.4125,126.5719 2108.4125,126.8594 L2108.4125,127.5344 Q2108.4125,127.8219 2108.3,127.9469 Q2108.1875,128.0719 2108.0125,128.0719 Q2107.85,128.0719 2107.75,127.9844 Q2107.65,127.8969 2107.6,127.6469 Q2107.575,127.4844 2107.5,127.3969 Q2107.3375,127.2094 2107.05,127.1094 Q2106.7625,127.0094 2106.475,127.0094 Q2106.1125,127.0094 2105.8125,127.1719 Q2105.5125,127.3219 2105.275,127.6719 Q2105.05,128.0219 2105.05,128.5094 L2105.05,129.0219 Q2105.05,129.5969 2105.4625,129.9844 Q2105.8875,130.3719 2106.6375,130.3719 Q2107.0875,130.3719 2107.3875,130.2594 Q2107.575,130.1844 2107.775,129.9719 Q2107.9,129.8469 2107.9625,129.8094 Q2108.0375,129.7719 2108.125,129.7719 Q2108.2875,129.7719 2108.4125,129.8969 Q2108.5375,130.0219 2108.5375,130.1844 Q2108.5375,130.3469 2108.3625,130.5344 Q2108.125,130.8094 2107.75,130.9594 Q2107.25,131.1719 2106.6375,131.1719 Q2105.925,131.1719 2105.3625,130.8844 Q2104.9,130.6469 2104.575,130.1469 Q2104.25,129.6344 2104.25,129.0344 L2104.25,128.4969 Q2104.25,127.8719 2104.5375,127.3344 Q2104.8375,126.7844 2105.35,126.4969 Q2105.8625,126.2094 2106.4375,126.2094 Q2106.7875,126.2094 2107.0875,126.2844 Q2107.4,126.3594 2107.6625,126.5219 Z " fill="#000000"/><text fill="#000000" font-family="Hack" font-size="11.2" lengthAdjust="spacing" textLength="28.8" x="2119.6" y="133.2969">Truck</text><line style="stroke:#000000;stroke-width:0.8000000000000002;" x1="2007.6" x2="2240.4" y1="140.1078" y2="140.1078"/><text fill="#000000" font-family="Hack" font-size="11.2" lengthAdjust="spacing" textLength="162.4" x="2011.6" y="155.3938">+Id : string { get; protected set; }</text><text fill="#000000" font-family="Hack" font-size="11.2" lengthAdjust="spacing" textLength="200.8" x="2011.6" y="170.2906">+DriverID : string? { get; protected set; }</text><text fill="#000000" font-family="Hack" font-size="11.2" lengthAdjust="spacing" textLength="182.4" x="2011.6" y="185.1875">+Name : string { get; protected set; }</text><text fill="#000000" font-family="Hack" font-size="11.2" lengthAdjust="spacing" textLength="224.8" x="2011.6" y="200.0844">+CarryingCapacity : int { get; protected set; }</text><text fill="#000000" font-family="Hack" font-size="11.2" lengthAdjust="spacing" textLength="206.4" x="2011.6" y="214.9813">+UsefulVolume : int { get; protected set; }</text><text fill="#000000" font-family="Hack" font-size="11.2" lengthAdjust="spacing" textLength="181.6" x="2011.6" y="229.8781">+Capacity : int { get; protected set; }</text><text fill="#000000" font-family="Hack" font-size="11.2" lengthAdjust="spacing" textLength="200" x="2011.6" y="244.775">+Availability : bool { get; protected set; }</text><text fill="#000000" font-family="Hack" font-size="11.2" lengthAdjust="spacing" textLength="205.6" x="2011.6" y="259.6719">+ParkingSpot : int? { get; protected set; }</text><line style="stroke:#000000;stroke-width:0.8000000000000002;" x1="2007.6" x2="2240.4" y1="265.6828" y2="265.6828"/><text fill="#000000" font-family="Hack" font-size="11.2" lengthAdjust="spacing" textLength="153.6" x="2011.6" y="280.9688">+SetAvailability(val:bool) : void</text><text fill="#000000" font-family="Hack" font-size="11.2" lengthAdjust="spacing" textLength="172" x="2011.6" y="295.8656">+SetParkingSpot(value:int?) : void</text><text fill="#000000" font-family="Hack" font-size="11.2" lengthAdjust="spacing" textLength="160.8" x="2011.6" y="310.7625">+SetDriverID(value:string) : void</text></g><!--class AutomaticClutch--><g id="elem_AutomaticClutch"><rect codeLine="1" fill="#FFFFFF" height="80.3875" id="AutomaticClutch" rx="2" ry="2" style="stroke:#000000;stroke-width:0.8000000000000002;" width="233.6" x="1615.2" y="462.4109"/><ellipse cx="1688.4" cy="473.8594" fill="#FFFFFF" rx="6.4" ry="6.4" style="stroke:#000000;stroke-width:0.8000000000000002;"/><path d="M1689.2625,471.7219 Q1689.325,471.6219 1689.4125,471.5719 Q1689.5125,471.5219 1689.6125,471.5219 Q1689.7875,471.5219 1689.9,471.6469 Q1690.0125,471.7719 1690.0125,472.0594 L1690.0125,472.7344 Q1690.0125,473.0219 1689.9,473.1469 Q1689.7875,473.2719 1689.6125,473.2719 Q1689.45,473.2719 1689.35,473.1844 Q1689.25,473.0969 1689.2,472.8469 Q1689.175,472.6844 1689.1,472.5969 Q1688.9375,472.4094 1688.65,472.3094 Q1688.3625,472.2094 1688.075,472.2094 Q1687.7125,472.2094 1687.4125,472.3719 Q1687.1125,472.5219 1686.875,472.8719 Q1686.65,473.2219 1686.65,473.7094 L1686.65,474.2219 Q1686.65,474.7969 1687.0625,475.1844 Q1687.4875,475.5719 1688.2375,475.5719 Q1688.6875,475.5719 1688.9875,475.4594 Q1689.175,475.3844 1689.375,475.1719 Q1689.5,475.0469 1689.5625,475.0094 Q1689.6375,474.9719 1689.725,474.9719 Q1689.8875,474.9719 1690.0125,475.0969 Q1690.1375,475.2219 1690.1375,475.3844 Q1690.1375,475.5469 1689.9625,475.7344 Q1689.725,476.0094 1689.35,476.1594 Q1688.85,476.3719 1688.2375,476.3719 Q1687.525,476.3719 1686.9625,476.0844 Q1686.5,475.8469 1686.175,475.3469 Q1685.85,474.8344 1685.85,474.2344 L1685.85,473.6969 Q1685.85,473.0719 1686.1375,472.5344 Q1686.4375,471.9844 1686.95,471.6969 Q1687.4625,471.4094 1688.0375,471.4094 Q1688.3875,471.4094 1688.6875,471.4844 Q1689,471.5594 1689.2625,471.7219 Z " fill="#000000"/><text fill="#000000" font-family="Hack" font-size="11.2" lengthAdjust="spacing" textLength="81.6" x="1701.2" y="478.4969">AutomaticClutch</text><line style="stroke:#000000;stroke-width:0.8000000000000002;" x1="1616" x2="1848" y1="485.3078" y2="485.3078"/><text fill="#000000" font-family="Hack" font-size="11.2" lengthAdjust="spacing" textLength="224" x="1620" y="500.5938">+&#171;static&#187; allowedCarryingCapacity : double[]</text><text fill="#000000" font-family="Hack" font-size="11.2" lengthAdjust="spacing" textLength="205.6" x="1620" y="515.4906">+&#171;static&#187; allowedUsefulVolume : double[]</text><text fill="#000000" font-family="Hack" font-size="11.2" lengthAdjust="spacing" textLength="180.8" x="1620" y="530.3875">+&#171;static&#187; allowedCapacity : double[]</text><line style="stroke:#000000;stroke-width:0.8000000000000002;" x1="1616" x2="1848" y1="536.3984" y2="536.3984"/></g><!--class Container--><g id="elem_Container"><rect codeLine="1" fill="#FFFFFF" height="80.3875" id="Container" rx="2" ry="2" style="stroke:#000000;stroke-width:0.8000000000000002;" width="233.6" x="1876.8" y="462.4109"/><ellipse cx="1966" cy="473.8594" fill="#FFFFFF" rx="6.4" ry="6.4" style="stroke:#000000;stroke-width:0.8000000000000002;"/><path d="M1966.8625,471.7219 Q1966.925,471.6219 1967.0125,471.5719 Q1967.1125,471.5219 1967.2125,471.5219 Q1967.3875,471.5219 1967.5,471.6469 Q1967.6125,471.7719 1967.6125,472.0594 L1967.6125,472.7344 Q1967.6125,473.0219 1967.5,473.1469 Q1967.3875,473.2719 1967.2125,473.2719 Q1967.05,473.2719 1966.95,473.1844 Q1966.85,473.0969 1966.8,472.8469 Q1966.775,472.6844 1966.7,472.5969 Q1966.5375,472.4094 1966.25,472.3094 Q1965.9625,472.2094 1965.675,472.2094 Q1965.3125,472.2094 1965.0125,472.3719 Q1964.7125,472.5219 1964.475,472.8719 Q1964.25,473.2219 1964.25,473.7094 L1964.25,474.2219 Q1964.25,474.7969 1964.6625,475.1844 Q1965.0875,475.5719 1965.8375,475.5719 Q1966.2875,475.5719 1966.5875,475.4594 Q1966.775,475.3844 1966.975,475.1719 Q1967.1,475.0469 1967.1625,475.0094 Q1967.2375,474.9719 1967.325,474.9719 Q1967.4875,474.9719 1967.6125,475.0969 Q1967.7375,475.2219 1967.7375,475.3844 Q1967.7375,475.5469 1967.5625,475.7344 Q1967.325,476.0094 1966.95,476.1594 Q1966.45,476.3719 1965.8375,476.3719 Q1965.125,476.3719 1964.5625,476.0844 Q1964.1,475.8469 1963.775,475.3469 Q1963.45,474.8344 1963.45,474.2344 L1963.45,473.6969 Q1963.45,473.0719 1963.7375,472.5344 Q1964.0375,471.9844 1964.55,471.6969 Q1965.0625,471.4094 1965.6375,471.4094 Q1965.9875,471.4094 1966.2875,471.4844 Q1966.6,471.5594 1966.8625,471.7219 Z " fill="#000000"/><text fill="#000000" font-family="Hack" font-size="11.2" lengthAdjust="spacing" textLength="49.6" x="1978.8" y="478.4969">Container</text><line style="stroke:#000000;stroke-width:0.8000000000000002;" x1="1877.6" x2="2109.6" y1="485.3078" y2="485.3078"/><text fill="#000000" font-family="Hack" font-size="11.2" lengthAdjust="spacing" textLength="224" x="1881.6" y="500.5938">+&#171;static&#187; allowedCarryingCapacity : double[]</text><text fill="#000000" font-family="Hack" font-size="11.2" lengthAdjust="spacing" textLength="205.6" x="1881.6" y="515.4906">+&#171;static&#187; allowedUsefulVolume : double[]</text><text fill="#000000" font-family="Hack" font-size="11.2" lengthAdjust="spacing" textLength="180.8" x="1881.6" y="530.3875">+&#171;static&#187; allowedCapacity : double[]</text><line style="stroke:#000000;stroke-width:0.8000000000000002;" x1="1877.6" x2="2109.6" y1="536.3984" y2="536.3984"/></g><!--class Refrigerated--><g id="elem_Refrigerated"><rect codeLine="1" fill="#FFFFFF" height="80.3875" id="Refrigerated" rx="2" ry="2" style="stroke:#000000;stroke-width:0.8000000000000002;" width="233.6" x="2138.4" y="462.4109"/><ellipse cx="2220.8" cy="473.8594" fill="#FFFFFF" rx="6.4" ry="6.4" style="stroke:#000000;stroke-width:0.8000000000000002;"/><path d="M2221.6625,471.7219 Q2221.725,471.6219 2221.8125,471.5719 Q2221.9125,471.5219 2222.0125,471.5219 Q2222.1875,471.5219 2222.3,471.6469 Q2222.4125,471.7719 2222.4125,472.0594 L2222.4125,472.7344 Q2222.4125,473.0219 2222.3,473.1469 Q2222.1875,473.2719 2222.0125,473.2719 Q2221.85,473.2719 2221.75,473.1844 Q2221.65,473.0969 2221.6,472.8469 Q2221.575,472.6844 2221.5,472.5969 Q2221.3375,472.4094 2221.05,472.3094 Q2220.7625,472.2094 2220.475,472.2094 Q2220.1125,472.2094 2219.8125,472.3719 Q2219.5125,472.5219 2219.275,472.8719 Q2219.05,473.2219 2219.05,473.7094 L2219.05,474.2219 Q2219.05,474.7969 2219.4625,475.1844 Q2219.8875,475.5719 2220.6375,475.5719 Q2221.0875,475.5719 2221.3875,475.4594 Q2221.575,475.3844 2221.775,475.1719 Q2221.9,475.0469 2221.9625,475.0094 Q2222.0375,474.9719 2222.125,474.9719 Q2222.2875,474.9719 2222.4125,475.0969 Q2222.5375,475.2219 2222.5375,475.3844 Q2222.5375,475.5469 2222.3625,475.7344 Q2222.125,476.0094 2221.75,476.1594 Q2221.25,476.3719 2220.6375,476.3719 Q2219.925,476.3719 2219.3625,476.0844 Q2218.9,475.8469 2218.575,475.3469 Q2218.25,474.8344 2218.25,474.2344 L2218.25,473.6969 Q2218.25,473.0719 2218.5375,472.5344 Q2218.8375,471.9844 2219.35,471.6969 Q2219.8625,471.4094 2220.4375,471.4094 Q2220.7875,471.4094 2221.0875,471.4844 Q2221.4,471.5594 2221.6625,471.7219 Z " fill="#000000"/><text fill="#000000" font-family="Hack" font-size="11.2" lengthAdjust="spacing" textLength="63.2" x="2233.6" y="478.4969">Refrigerated</text><line style="stroke:#000000;stroke-width:0.8000000000000002;" x1="2139.2" x2="2371.2" y1="485.3078" y2="485.3078"/><text fill="#000000" font-family="Hack" font-size="11.2" lengthAdjust="spacing" textLength="224" x="2143.2" y="500.5938">+&#171;static&#187; allowedCarryingCapacity : double[]</text><text fill="#000000" font-family="Hack" font-size="11.2" lengthAdjust="spacing" textLength="205.6" x="2143.2" y="515.4906">+&#171;static&#187; allowedUsefulVolume : double[]</text><text fill="#000000" font-family="Hack" font-size="11.2" lengthAdjust="spacing" textLength="180.8" x="2143.2" y="530.3875">+&#171;static&#187; allowedCapacity : double[]</text><line style="stroke:#000000;stroke-width:0.8000000000000002;" x1="2139.2" x2="2371.2" y1="536.3984" y2="536.3984"/></g><!--class Tent--><g id="elem_Tent"><rect codeLine="1" fill="#FFFFFF" height="80.3875" id="Tent" rx="2" ry="2" style="stroke:#000000;stroke-width:0.8000000000000002;" width="233.6" x="2400" y="462.4109"/><ellipse cx="2502.4" cy="473.8594" fill="#FFFFFF" rx="6.4" ry="6.4" style="stroke:#000000;stroke-width:0.8000000000000002;"/><path d="M2503.2625,471.7219 Q2503.325,471.6219 2503.4125,471.5719 Q2503.5125,471.5219 2503.6125,471.5219 Q2503.7875,471.5219 2503.9,471.6469 Q2504.0125,471.7719 2504.0125,472.0594 L2504.0125,472.7344 Q2504.0125,473.0219 2503.9,473.1469 Q2503.7875,473.2719 2503.6125,473.2719 Q2503.45,473.2719 2503.35,473.1844 Q2503.25,473.0969 2503.2,472.8469 Q2503.175,472.6844 2503.1,472.5969 Q2502.9375,472.4094 2502.65,472.3094 Q2502.3625,472.2094 2502.075,472.2094 Q2501.7125,472.2094 2501.4125,472.3719 Q2501.1125,472.5219 2500.875,472.8719 Q2500.65,473.2219 2500.65,473.7094 L2500.65,474.2219 Q2500.65,474.7969 2501.0625,475.1844 Q2501.4875,475.5719 2502.2375,475.5719 Q2502.6875,475.5719 2502.9875,475.4594 Q2503.175,475.3844 2503.375,475.1719 Q2503.5,475.0469 2503.5625,475.0094 Q2503.6375,474.9719 2503.725,474.9719 Q2503.8875,474.9719 2504.0125,475.0969 Q2504.1375,475.2219 2504.1375,475.3844 Q2504.1375,475.5469 2503.9625,475.7344 Q2503.725,476.0094 2503.35,476.1594 Q2502.85,476.3719 2502.2375,476.3719 Q2501.525,476.3719 2500.9625,476.0844 Q2500.5,475.8469 2500.175,475.3469 Q2499.85,474.8344 2499.85,474.2344 L2499.85,473.6969 Q2499.85,473.0719 2500.1375,472.5344 Q2500.4375,471.9844 2500.95,471.6969 Q2501.4625,471.4094 2502.0375,471.4094 Q2502.3875,471.4094 2502.6875,471.4844 Q2503,471.5594 2503.2625,471.7219 Z " fill="#000000"/><text fill="#000000" font-family="Hack" font-size="11.2" lengthAdjust="spacing" textLength="23.2" x="2515.2" y="478.4969">Tent</text><line style="stroke:#000000;stroke-width:0.8000000000000002;" x1="2400.8" x2="2632.8" y1="485.3078" y2="485.3078"/><text fill="#000000" font-family="Hack" font-size="11.2" lengthAdjust="spacing" textLength="224" x="2404.8" y="500.5938">+&#171;static&#187; allowedCarryingCapacity : double[]</text><text fill="#000000" font-family="Hack" font-size="11.2" lengthAdjust="spacing" textLength="205.6" x="2404.8" y="515.4906">+&#171;static&#187; allowedUsefulVolume : double[]</text><text fill="#000000" font-family="Hack" font-size="11.2" lengthAdjust="spacing" textLength="180.8" x="2404.8" y="530.3875">+&#171;static&#187; allowedCapacity : double[]</text><line style="stroke:#000000;stroke-width:0.8000000000000002;" x1="2400.8" x2="2632.8" y1="536.3984" y2="536.3984"/></g><!--class IDGenerator--><g id="elem_IDGenerator"><rect codeLine="1" fill="#FFFFFF" height="61.2344" id="IDGenerator" rx="2" ry="2" style="stroke:#000000;stroke-width:0.8000000000000002;" width="204.8" x="3124" y="186.0109"/><ellipse cx="3192.4" cy="202.7797" fill="#FFFFFF" rx="6.4" ry="6.4" style="stroke:#000000;stroke-width:0.8000000000000002;"/><path d="M3193.2625,200.6422 Q3193.325,200.5422 3193.4125,200.4922 Q3193.5125,200.4422 3193.6125,200.4422 Q3193.7875,200.4422 3193.9,200.5672 Q3194.0125,200.6922 3194.0125,200.9797 L3194.0125,201.6547 Q3194.0125,201.9422 3193.9,202.0672 Q3193.7875,202.1922 3193.6125,202.1922 Q3193.45,202.1922 3193.35,202.1047 Q3193.25,202.0172 3193.2,201.7672 Q3193.175,201.6047 3193.1,201.5172 Q3192.9375,201.3297 3192.65,201.2297 Q3192.3625,201.1297 3192.075,201.1297 Q3191.7125,201.1297 3191.4125,201.2922 Q3191.1125,201.4422 3190.875,201.7922 Q3190.65,202.1422 3190.65,202.6297 L3190.65,203.1422 Q3190.65,203.7172 3191.0625,204.1047 Q3191.4875,204.4922 3192.2375,204.4922 Q3192.6875,204.4922 3192.9875,204.3797 Q3193.175,204.3047 3193.375,204.0922 Q3193.5,203.9672 3193.5625,203.9297 Q3193.6375,203.8922 3193.725,203.8922 Q3193.8875,203.8922 3194.0125,204.0172 Q3194.1375,204.1422 3194.1375,204.3047 Q3194.1375,204.4672 3193.9625,204.6547 Q3193.725,204.9297 3193.35,205.0797 Q3192.85,205.2922 3192.2375,205.2922 Q3191.525,205.2922 3190.9625,205.0047 Q3190.5,204.7672 3190.175,204.2672 Q3189.85,203.7547 3189.85,203.1547 L3189.85,202.6172 Q3189.85,201.9922 3190.1375,201.4547 Q3190.4375,200.9047 3190.95,200.6172 Q3191.4625,200.3297 3192.0375,200.3297 Q3192.3875,200.3297 3192.6875,200.4047 Q3193,200.4797 3193.2625,200.6422 Z " fill="#000000"/><text fill="#666666" font-family="Hack" font-size="8" font-style="italic" lengthAdjust="spacing" textLength="29.6" x="3221.6" y="198.6438">&#171;static&#187;</text><text fill="#000000" font-family="Hack" font-size="11.2" lengthAdjust="spacing" textLength="62.4" x="3205.2" y="212.7375">IDGenerator</text><line style="stroke:#000000;stroke-width:0.8000000000000002;" x1="3124.8" x2="3328" y1="219.5484" y2="219.5484"/><line style="stroke:#000000;stroke-width:0.8000000000000002;" x1="3124.8" x2="3328" y1="225.9484" y2="225.9484"/><text fill="#000000" font-family="Hack" font-size="11.2" lengthAdjust="spacing" text-decoration="underline" textLength="195.2" x="3128.8" y="241.2344">+GenerateRandom (length: int) : string</text></g><!--class TruckType--><g id="elem_TruckType"><rect codeLine="1" fill="#FFFFFF" height="95.2844" id="TruckType" rx="2" ry="2" style="stroke:#000000;stroke-width:0.8000000000000002;" width="76" x="2966" y="454.8109"/><ellipse cx="2975.96" cy="466.2594" fill="#FFFFFF" rx="6.4" ry="6.4" style="stroke:#000000;stroke-width:0.8000000000000002;"/><path d="M2975.535,466.6844 L2975.535,467.8594 L2977.585,467.8594 L2977.585,467.4219 Q2977.585,467.1344 2977.6975,467.0094 Q2977.81,466.8844 2977.985,466.8844 Q2978.16,466.8844 2978.2725,467.0094 Q2978.385,467.1344 2978.385,467.4219 L2978.385,468.6594 L2974.61,468.6594 Q2974.3225,468.6594 2974.1975,468.5469 Q2974.0725,468.4344 2974.0725,468.2594 Q2974.0725,468.0844 2974.1975,467.9719 Q2974.3225,467.8594 2974.61,467.8594 L2974.735,467.8594 L2974.735,464.7219 L2974.61,464.7219 Q2974.3225,464.7219 2974.1975,464.6094 Q2974.0725,464.4969 2974.0725,464.3219 Q2974.0725,464.1469 2974.1975,464.0344 Q2974.3225,463.9219 2974.61,463.9219 L2978.21,463.9219 L2978.21,465.1469 Q2978.21,465.4344 2978.0975,465.5594 Q2977.985,465.6719 2977.81,465.6719 Q2977.6225,465.6719 2977.51,465.5594 Q2977.41,465.4344 2977.41,465.1469 L2977.41,464.7219 L2975.535,464.7219 L2975.535,465.8844 L2976.2475,465.8844 Q2976.2475,465.5719 2976.2975,465.4844 Q2976.4225,465.2844 2976.6475,465.2844 Q2976.8225,465.2844 2976.935,465.4094 Q2977.0475,465.5344 2977.0475,465.8219 L2977.0475,466.7469 Q2977.0475,467.0094 2976.985,467.0969 Q2976.86,467.2844 2976.6475,467.2844 Q2976.4225,467.2844 2976.2975,467.0844 Q2976.2475,466.9969 2976.2475,466.6844 L2975.535,466.6844 Z " fill="#000000"/><text fill="#000000" font-family="Hack" font-size="11.2" lengthAdjust="spacing" textLength="54.4" x="2984.84" y="470.8969">TruckType</text><line style="stroke:#000000;stroke-width:0.8000000000000002;" x1="2966.8" x2="3041.2" y1="477.7078" y2="477.7078"/><text fill="#000000" font-family="Hack" font-size="11.2" lengthAdjust="spacing" textLength="66.4" x="2970.8" y="492.9938">Refrigerated,</text><text fill="#000000" font-family="Hack" font-size="11.2" lengthAdjust="spacing" textLength="52.8" x="2970.8" y="507.8906">Container,</text><text fill="#000000" font-family="Hack" font-size="11.2" lengthAdjust="spacing" textLength="58.4" x="2970.8" y="522.7875">AutoClutch,</text><text fill="#000000" font-family="Hack" font-size="11.2" lengthAdjust="spacing" textLength="23.2" x="2970.8" y="537.6844">Tent</text><line style="stroke:#000000;stroke-width:0.8000000000000002;" x1="2966.8" x2="3041.2" y1="543.6953" y2="543.6953"/></g><!--class TruckTypeConverter--><g id="elem_TruckTypeConverter"><rect codeLine="7" fill="#FFFFFF" height="50.5938" id="TruckTypeConverter" rx="2" ry="2" style="stroke:#000000;stroke-width:0.8000000000000002;" width="172" x="2917.2" y="191.6109"/><ellipse cx="2948" cy="203.0594" fill="#FFFFFF" rx="6.4" ry="6.4" style="stroke:#000000;stroke-width:0.8000000000000002;"/><path d="M2948.8625,200.9219 Q2948.925,200.8219 2949.0125,200.7719 Q2949.1125,200.7219 2949.2125,200.7219 Q2949.3875,200.7219 2949.5,200.8469 Q2949.6125,200.9719 2949.6125,201.2594 L2949.6125,201.9344 Q2949.6125,202.2219 2949.5,202.3469 Q2949.3875,202.4719 2949.2125,202.4719 Q2949.05,202.4719 2948.95,202.3844 Q2948.85,202.2969 2948.8,202.0469 Q2948.775,201.8844 2948.7,201.7969 Q2948.5375,201.6094 2948.25,201.5094 Q2947.9625,201.4094 2947.675,201.4094 Q2947.3125,201.4094 2947.0125,201.5719 Q2946.7125,201.7219 2946.475,202.0719 Q2946.25,202.4219 2946.25,202.9094 L2946.25,203.4219 Q2946.25,203.9969 2946.6625,204.3844 Q2947.0875,204.7719 2947.8375,204.7719 Q2948.2875,204.7719 2948.5875,204.6594 Q2948.775,204.5844 2948.975,204.3719 Q2949.1,204.2469 2949.1625,204.2094 Q2949.2375,204.1719 2949.325,204.1719 Q2949.4875,204.1719 2949.6125,204.2969 Q2949.7375,204.4219 2949.7375,204.5844 Q2949.7375,204.7469 2949.5625,204.9344 Q2949.325,205.2094 2948.95,205.3594 Q2948.45,205.5719 2947.8375,205.5719 Q2947.125,205.5719 2946.5625,205.2844 Q2946.1,205.0469 2945.775,204.5469 Q2945.45,204.0344 2945.45,203.4344 L2945.45,202.8969 Q2945.45,202.2719 2945.7375,201.7344 Q2946.0375,201.1844 2946.55,200.8969 Q2947.0625,200.6094 2947.6375,200.6094 Q2947.9875,200.6094 2948.2875,200.6844 Q2948.6,200.7594 2948.8625,200.9219 Z " fill="#000000"/><text fill="#000000" font-family="Hack" font-size="11.2" lengthAdjust="spacing" textLength="104.8" x="2960.8" y="207.6969">TruckTypeConverter</text><line style="stroke:#000000;stroke-width:0.8000000000000002;" x1="2918" x2="3088.4" y1="214.5078" y2="214.5078"/><line style="stroke:#000000;stroke-width:0.8000000000000002;" x1="2918" x2="3088.4" y1="220.9078" y2="220.9078"/><text fill="#000000" font-family="Hack" font-size="11.2" lengthAdjust="spacing" textLength="162.4" x="2922" y="236.1938">+&#171;static&#187; dictionary : new() { ... }</text></g><!--class CargoType--><g id="elem_CargoType"><rect codeLine="1" fill="#FFFFFF" height="65.4906" id="CargoType" rx="2" ry="2" style="stroke:#000000;stroke-width:0.8000000000000002;" width="140" x="2721.2" y="469.6109"/><ellipse cx="2760" cy="481.0594" fill="#FFFFFF" rx="6.4" ry="6.4" style="stroke:#000000;stroke-width:0.8000000000000002;"/><path d="M2759.575,481.4844 L2759.575,482.6594 L2761.625,482.6594 L2761.625,482.2219 Q2761.625,481.9344 2761.7375,481.8094 Q2761.85,481.6844 2762.025,481.6844 Q2762.2,481.6844 2762.3125,481.8094 Q2762.425,481.9344 2762.425,482.2219 L2762.425,483.4594 L2758.65,483.4594 Q2758.3625,483.4594 2758.2375,483.3469 Q2758.1125,483.2344 2758.1125,483.0594 Q2758.1125,482.8844 2758.2375,482.7719 Q2758.3625,482.6594 2758.65,482.6594 L2758.775,482.6594 L2758.775,479.5219 L2758.65,479.5219 Q2758.3625,479.5219 2758.2375,479.4094 Q2758.1125,479.2969 2758.1125,479.1219 Q2758.1125,478.9469 2758.2375,478.8344 Q2758.3625,478.7219 2758.65,478.7219 L2762.25,478.7219 L2762.25,479.9469 Q2762.25,480.2344 2762.1375,480.3594 Q2762.025,480.4719 2761.85,480.4719 Q2761.6625,480.4719 2761.55,480.3594 Q2761.45,480.2344 2761.45,479.9469 L2761.45,479.5219 L2759.575,479.5219 L2759.575,480.6844 L2760.2875,480.6844 Q2760.2875,480.3719 2760.3375,480.2844 Q2760.4625,480.0844 2760.6875,480.0844 Q2760.8625,480.0844 2760.975,480.2094 Q2761.0875,480.3344 2761.0875,480.6219 L2761.0875,481.5469 Q2761.0875,481.8094 2761.025,481.8969 Q2760.9,482.0844 2760.6875,482.0844 Q2760.4625,482.0844 2760.3375,481.8844 Q2760.2875,481.7969 2760.2875,481.4844 L2759.575,481.4844 Z " fill="#000000"/><text fill="#000000" font-family="Hack" font-size="11.2" lengthAdjust="spacing" textLength="56.8" x="2772.8" y="485.6969">CargoType</text><line style="stroke:#000000;stroke-width:0.8000000000000002;" x1="2722" x2="2860.4" y1="492.5078" y2="492.5078"/><text fill="#000000" font-family="Hack" font-size="11.2" lengthAdjust="spacing" textLength="109.6" x="2726" y="507.7938">RequiresRefrigerator,</text><text fill="#000000" font-family="Hack" font-size="11.2" lengthAdjust="spacing" textLength="130.4" x="2726" y="522.6906">DoesNotNeedRefrigerator</text><line style="stroke:#000000;stroke-width:0.8000000000000002;" x1="2722" x2="2860.4" y1="528.7016" y2="528.7016"/></g><!--class CargoTypeConverter--><g id="elem_CargoTypeConverter"><rect codeLine="5" fill="#FFFFFF" height="50.5938" id="CargoTypeConverter" rx="2" ry="2" style="stroke:#000000;stroke-width:0.8000000000000002;" width="172" x="2704.4" y="191.6109"/><ellipse cx="2734" cy="203.0594" fill="#FFFFFF" rx="6.4" ry="6.4" style="stroke:#000000;stroke-width:0.8000000000000002;"/><path d="M2734.8625,200.9219 Q2734.925,200.8219 2735.0125,200.7719 Q2735.1125,200.7219 2735.2125,200.7219 Q2735.3875,200.7219 2735.5,200.8469 Q2735.6125,200.9719 2735.6125,201.2594 L2735.6125,201.9344 Q2735.6125,202.2219 2735.5,202.3469 Q2735.3875,202.4719 2735.2125,202.4719 Q2735.05,202.4719 2734.95,202.3844 Q2734.85,202.2969 2734.8,202.0469 Q2734.775,201.8844 2734.7,201.7969 Q2734.5375,201.6094 2734.25,201.5094 Q2733.9625,201.4094 2733.675,201.4094 Q2733.3125,201.4094 2733.0125,201.5719 Q2732.7125,201.7219 2732.475,202.0719 Q2732.25,202.4219 2732.25,202.9094 L2732.25,203.4219 Q2732.25,203.9969 2732.6625,204.3844 Q2733.0875,204.7719 2733.8375,204.7719 Q2734.2875,204.7719 2734.5875,204.6594 Q2734.775,204.5844 2734.975,204.3719 Q2735.1,204.2469 2735.1625,204.2094 Q2735.2375,204.1719 2735.325,204.1719 Q2735.4875,204.1719 2735.6125,204.2969 Q2735.7375,204.4219 2735.7375,204.5844 Q2735.7375,204.7469 2735.5625,204.9344 Q2735.325,205.2094 2734.95,205.3594 Q2734.45,205.5719 2733.8375,205.5719 Q2733.125,205.5719 2732.5625,205.2844 Q2732.1,205.0469 2731.775,204.5469 Q2731.45,204.0344 2731.45,203.4344 L2731.45,202.8969 Q2731.45,202.2719 2731.7375,201.7344 Q2732.0375,201.1844 2732.55,200.8969 Q2733.0625,200.6094 2733.6375,200.6094 Q2733.9875,200.6094 2734.2875,200.6844 Q2734.6,200.7594 2734.8625,200.9219 Z " fill="#000000"/><text fill="#000000" font-family="Hack" font-size="11.2" lengthAdjust="spacing" textLength="107.2" x="2746.8" y="207.6969">CargoTypeConverter</text><line style="stroke:#000000;stroke-width:0.8000000000000002;" x1="2705.2" x2="2875.6" y1="214.5078" y2="214.5078"/><line style="stroke:#000000;stroke-width:0.8000000000000002;" x1="2705.2" x2="2875.6" y1="220.9078" y2="220.9078"/><text fill="#000000" font-family="Hack" font-size="11.2" lengthAdjust="spacing" textLength="162.4" x="2709.2" y="236.1938">+&#171;static&#187; dictionary : new() { ... }</text></g><!--class IDataGatherer--><g id="elem_IDataGatherer"><rect codeLine="1" fill="#FFFFFF" height="50.5938" id="IDataGatherer" rx="2" ry="2" style="stroke:#000000;stroke-width:0.8000000000000002;" width="104" x="183.2" y="191.6109"/><ellipse cx="192.8" cy="203.0594" fill="#FFFFFF" rx="6.4" ry="6.4" style="stroke:#000000;stroke-width:0.8000000000000002;"/><path d="M193.6,201.5219 L193.6,204.6594 L194.4125,204.6594 Q194.7,204.6594 194.825,204.7719 Q194.95,204.8844 194.95,205.0594 Q194.95,205.2344 194.825,205.3469 Q194.7,205.4594 194.4125,205.4594 L191.9875,205.4594 Q191.7,205.4594 191.575,205.3469 Q191.4625,205.2344 191.4625,205.0594 Q191.4625,204.8844 191.575,204.7719 Q191.7,204.6594 191.9875,204.6594 L192.8,204.6594 L192.8,201.5219 L191.9875,201.5219 Q191.7,201.5219 191.575,201.4094 Q191.4625,201.2969 191.4625,201.1219 Q191.4625,200.9469 191.575,200.8344 Q191.7,200.7219 191.9875,200.7219 L194.4125,200.7219 Q194.7,200.7219 194.825,200.8344 Q194.95,200.9469 194.95,201.1219 Q194.95,201.2969 194.825,201.4094 Q194.7,201.5219 194.4125,201.5219 L193.6,201.5219 Z " fill="#000000"/><text fill="#000000" font-family="Hack" font-size="11.2" font-style="italic" lengthAdjust="spacing" textLength="72.8" x="201.6" y="207.6969">IDataGatherer</text><rect fill="#FFFFFF" height="12.2406" style="stroke:#000000;stroke-width:0.8000000000000002;stroke-dasharray:2.0,2.0;" width="8.8" x="280.8" y="189.2109"/><text fill="#666666" font-family="Hack" font-size="8" font-style="italic" lengthAdjust="spacing" textLength="4.8" x="281.6" y="198.6438">T</text><line style="stroke:#000000;stroke-width:0.8000000000000002;" x1="184" x2="286.4" y1="214.5078" y2="214.5078"/><line style="stroke:#000000;stroke-width:0.8000000000000002;" x1="184" x2="286.4" y1="220.9078" y2="220.9078"/><text fill="#000000" font-family="Hack" font-size="11.2" lengthAdjust="spacing" textLength="87.2" x="188" y="236.1938">GatherData () : T</text></g><!--class IValidationValid--><g id="elem_IValidationValid"><rect codeLine="1" fill="#FFFFFF" height="50.5938" id="IValidationValid" rx="2" ry="2" style="stroke:#000000;stroke-width:0.8000000000000002;" width="98.4" x="315.6" y="191.6109"/><ellipse cx="325.2" cy="203.0594" fill="#FFFFFF" rx="6.4" ry="6.4" style="stroke:#000000;stroke-width:0.8000000000000002;"/><path d="M326,201.5219 L326,204.6594 L326.8125,204.6594 Q327.1,204.6594 327.225,204.7719 Q327.35,204.8844 327.35,205.0594 Q327.35,205.2344 327.225,205.3469 Q327.1,205.4594 326.8125,205.4594 L324.3875,205.4594 Q324.1,205.4594 323.975,205.3469 Q323.8625,205.2344 323.8625,205.0594 Q323.8625,204.8844 323.975,204.7719 Q324.1,204.6594 324.3875,204.6594 L325.2,204.6594 L325.2,201.5219 L324.3875,201.5219 Q324.1,201.5219 323.975,201.4094 Q323.8625,201.2969 323.8625,201.1219 Q323.8625,200.9469 323.975,200.8344 Q324.1,200.7219 324.3875,200.7219 L326.8125,200.7219 Q327.1,200.7219 327.225,200.8344 Q327.35,200.9469 327.35,201.1219 Q327.35,201.2969 327.225,201.4094 Q327.1,201.5219 326.8125,201.5219 L326,201.5219 Z " fill="#000000"/><text fill="#000000" font-family="Hack" font-size="11.2" font-style="italic" lengthAdjust="spacing" textLength="77.6" x="334" y="207.6969">IValidationValid</text><line style="stroke:#000000;stroke-width:0.8000000000000002;" x1="316.4" x2="413.2" y1="214.5078" y2="214.5078"/><line style="stroke:#000000;stroke-width:0.8000000000000002;" x1="316.4" x2="413.2" y1="220.9078" y2="220.9078"/><text fill="#000000" font-family="Hack" font-size="11.2" lengthAdjust="spacing" textLength="75.2" x="320.4" y="236.1938">IsValid () : bool</text></g><!--class ILayerTransfer--><g id="elem_ILayerTransfer"><rect codeLine="1" fill="#FFFFFF" height="65.4906" id="ILayerTransfer" rx="2" ry="2" style="stroke:#000000;stroke-width:0.8000000000000002;" width="342.4" x="64" y="469.6109"/><ellipse cx="161.6" cy="481.0594" fill="#FFFFFF" rx="6.4" ry="6.4" style="stroke:#000000;stroke-width:0.8000000000000002;"/><path d="M162.4,479.5219 L162.4,482.6594 L163.2125,482.6594 Q163.5,482.6594 163.625,482.7719 Q163.75,482.8844 163.75,483.0594 Q163.75,483.2344 163.625,483.3469 Q163.5,483.4594 163.2125,483.4594 L160.7875,483.4594 Q160.5,483.4594 160.375,483.3469 Q160.2625,483.2344 160.2625,483.0594 Q160.2625,482.8844 160.375,482.7719 Q160.5,482.6594 160.7875,482.6594 L161.6,482.6594 L161.6,479.5219 L160.7875,479.5219 Q160.5,479.5219 160.375,479.4094 Q160.2625,479.2969 160.2625,479.1219 Q160.2625,478.9469 160.375,478.8344 Q160.5,478.7219 160.7875,478.7219 L163.2125,478.7219 Q163.5,478.7219 163.625,478.8344 Q163.75,478.9469 163.75,479.1219 Q163.75,479.2969 163.625,479.4094 Q163.5,479.5219 163.2125,479.5219 L162.4,479.5219 Z " fill="#000000"/><text fill="#000000" font-family="Hack" font-size="11.2" font-style="italic" lengthAdjust="spacing" textLength="75.2" x="174.4" y="485.6969">ILayerTransfer</text><rect fill="#FFFFFF" height="12.2406" style="stroke:#000000;stroke-width:0.8000000000000002;stroke-dasharray:2.0,2.0;" width="64.8" x="344" y="467.2109"/><text fill="#666666" font-family="Hack" font-size="8" font-style="italic" lengthAdjust="spacing" textLength="58.4" x="347.2" y="476.6438">TSender, TDTO</text><line style="stroke:#000000;stroke-width:0.8000000000000002;" x1="64.8" x2="405.6" y1="492.5078" y2="492.5078"/><text fill="#000000" font-family="Hack" font-size="11.2" lengthAdjust="spacing" textLength="332.8" x="68.8" y="507.7938">+&#171;event&#187; TransferDTO : TransferDTOToModel &lt;TSender,TDTO&gt;</text><line style="stroke:#000000;stroke-width:0.8000000000000002;" x1="64.8" x2="405.6" y1="513.8047" y2="513.8047"/><text fill="#000000" font-family="Hack" font-size="11.2" lengthAdjust="spacing" textLength="292" x="68.8" y="529.0906">+RequestTransfer (dto: TDTO, senderName: string) : void</text></g><!--class TransferDTOToModel--><g id="elem_TransferDTOToModel"><rect codeLine="5" fill="#FFFFFF" height="46.3375" id="TransferDTOToModel" rx="2" ry="2" style="stroke:#000000;stroke-width:0.8000000000000002;" width="193.6" x="434.4" y="479.2109"/><ellipse cx="444" cy="495.9797" fill="#FFFFFF" rx="6.4" ry="6.4" style="stroke:#000000;stroke-width:0.8000000000000002;"/><path d="M444.8625,493.8422 Q444.925,493.7422 445.0125,493.6922 Q445.1125,493.6422 445.2125,493.6422 Q445.3875,493.6422 445.5,493.7672 Q445.6125,493.8922 445.6125,494.1797 L445.6125,494.8547 Q445.6125,495.1422 445.5,495.2672 Q445.3875,495.3922 445.2125,495.3922 Q445.05,495.3922 444.95,495.3047 Q444.85,495.2172 444.8,494.9672 Q444.775,494.8047 444.7,494.7172 Q444.5375,494.5297 444.25,494.4297 Q443.9625,494.3297 443.675,494.3297 Q443.3125,494.3297 443.0125,494.4922 Q442.7125,494.6422 442.475,494.9922 Q442.25,495.3422 442.25,495.8297 L442.25,496.3422 Q442.25,496.9172 442.6625,497.3047 Q443.0875,497.6922 443.8375,497.6922 Q444.2875,497.6922 444.5875,497.5797 Q444.775,497.5047 444.975,497.2922 Q445.1,497.1672 445.1625,497.1297 Q445.2375,497.0922 445.325,497.0922 Q445.4875,497.0922 445.6125,497.2172 Q445.7375,497.3422 445.7375,497.5047 Q445.7375,497.6672 445.5625,497.8547 Q445.325,498.1297 444.95,498.2797 Q444.45,498.4922 443.8375,498.4922 Q443.125,498.4922 442.5625,498.2047 Q442.1,497.9672 441.775,497.4672 Q441.45,496.9547 441.45,496.3547 L441.45,495.8172 Q441.45,495.1922 441.7375,494.6547 Q442.0375,494.1047 442.55,493.8172 Q443.0625,493.5297 443.6375,493.5297 Q443.9875,493.5297 444.2875,493.6047 Q444.6,493.6797 444.8625,493.8422 Z " fill="#000000"/><text fill="#666666" font-family="Hack" font-size="8" font-style="italic" lengthAdjust="spacing" textLength="43.2" x="486.8" y="491.8438">&#171;delegate&#187;</text><text fill="#000000" font-family="Hack" font-size="11.2" lengthAdjust="spacing" textLength="111.2" x="452.8" y="505.9375">TransferDTOToModel</text><rect fill="#FFFFFF" height="12.2406" style="stroke:#000000;stroke-width:0.8000000000000002;stroke-dasharray:2.0,2.0;" width="60" x="570.4" y="476.8109"/><text fill="#666666" font-family="Hack" font-size="8" font-style="italic" lengthAdjust="spacing" textLength="58.4" x="571.2" y="486.2438">TSender, TDTO</text><line style="stroke:#000000;stroke-width:0.8000000000000002;" x1="435.2" x2="627.2" y1="512.7484" y2="512.7484"/><line style="stroke:#000000;stroke-width:0.8000000000000002;" x1="435.2" x2="627.2" y1="519.1484" y2="519.1484"/></g><!--class ParkedTruck--><g id="elem_ParkedTruck"><rect codeLine="1" fill="#FFFFFF" height="139.975" id="ParkedTruck" rx="2" ry="2" style="stroke:#000000;stroke-width:0.8000000000000002;" width="226.4" x="3706.8" y="146.8109"/><ellipse cx="3784.8" cy="158.2594" fill="#FFFFFF" rx="6.4" ry="6.4" style="stroke:#000000;stroke-width:0.8000000000000002;"/><path d="M3785.6625,156.1219 Q3785.725,156.0219 3785.8125,155.9719 Q3785.9125,155.9219 3786.0125,155.9219 Q3786.1875,155.9219 3786.3,156.0469 Q3786.4125,156.1719 3786.4125,156.4594 L3786.4125,157.1344 Q3786.4125,157.4219 3786.3,157.5469 Q3786.1875,157.6719 3786.0125,157.6719 Q3785.85,157.6719 3785.75,157.5844 Q3785.65,157.4969 3785.6,157.2469 Q3785.575,157.0844 3785.5,156.9969 Q3785.3375,156.8094 3785.05,156.7094 Q3784.7625,156.6094 3784.475,156.6094 Q3784.1125,156.6094 3783.8125,156.7719 Q3783.5125,156.9219 3783.275,157.2719 Q3783.05,157.6219 3783.05,158.1094 L3783.05,158.6219 Q3783.05,159.1969 3783.4625,159.5844 Q3783.8875,159.9719 3784.6375,159.9719 Q3785.0875,159.9719 3785.3875,159.8594 Q3785.575,159.7844 3785.775,159.5719 Q3785.9,159.4469 3785.9625,159.4094 Q3786.0375,159.3719 3786.125,159.3719 Q3786.2875,159.3719 3786.4125,159.4969 Q3786.5375,159.6219 3786.5375,159.7844 Q3786.5375,159.9469 3786.3625,160.1344 Q3786.125,160.4094 3785.75,160.5594 Q3785.25,160.7719 3784.6375,160.7719 Q3783.925,160.7719 3783.3625,160.4844 Q3782.9,160.2469 3782.575,159.7469 Q3782.25,159.2344 3782.25,158.6344 L3782.25,158.0969 Q3782.25,157.4719 3782.5375,156.9344 Q3782.8375,156.3844 3783.35,156.0969 Q3783.8625,155.8094 3784.4375,155.8094 Q3784.7875,155.8094 3785.0875,155.8844 Q3785.4,155.9594 3785.6625,156.1219 Z " fill="#000000"/><text fill="#000000" font-family="Hack" font-size="11.2" lengthAdjust="spacing" textLength="64.8" x="3797.6" y="162.8969">ParkedTruck</text><line style="stroke:#000000;stroke-width:0.8000000000000002;" x1="3707.6" x2="3932.4" y1="169.7078" y2="169.7078"/><text fill="#000000" font-family="Hack" font-size="11.2" lengthAdjust="spacing" textLength="140" x="3711.6" y="184.9938">+TruckId : string { get; set; }</text><text fill="#000000" font-family="Hack" font-size="11.2" lengthAdjust="spacing" textLength="131.2" x="3711.6" y="199.8906">+Name : string { get; set; }</text><text fill="#000000" font-family="Hack" font-size="11.2" lengthAdjust="spacing" textLength="161.6" x="3711.6" y="214.7875">+DriverName : string { get; set; }</text><text fill="#000000" font-family="Hack" font-size="11.2" lengthAdjust="spacing" textLength="109.6" x="3711.6" y="229.6844">+Spot : int { get; set; }</text><text fill="#000000" font-family="Hack" font-size="11.2" lengthAdjust="spacing" textLength="108" x="3711.6" y="244.5813">+Row : int { get; set; }</text><text fill="#000000" font-family="Hack" font-size="11.2" lengthAdjust="spacing" textLength="103.2" x="3711.6" y="259.4781">+Col : int { get; set; }</text><line style="stroke:#000000;stroke-width:0.8000000000000002;" x1="3707.6" x2="3932.4" y1="265.4891" y2="265.4891"/><text fill="#000000" font-family="Hack" font-size="11.2" lengthAdjust="spacing" textLength="216.8" x="3711.6" y="280.775">+SetRowColIdx (amountOfSpots : int) : void</text></g><!--class ParkingLotM--><g id="elem_ParkingLotM"><rect codeLine="1" fill="#FFFFFF" height="180.4094" id="ParkingLotM" rx="2" ry="2" style="stroke:#000000;stroke-width:0.8000000000000002;" width="285.6" x="3386.8" y="126.8109"/><ellipse cx="3495.2" cy="143.5797" fill="#FFFFFF" rx="6.4" ry="6.4" style="stroke:#000000;stroke-width:0.8000000000000002;"/><path d="M3496.0625,141.4422 Q3496.125,141.3422 3496.2125,141.2922 Q3496.3125,141.2422 3496.4125,141.2422 Q3496.5875,141.2422 3496.7,141.3672 Q3496.8125,141.4922 3496.8125,141.7797 L3496.8125,142.4547 Q3496.8125,142.7422 3496.7,142.8672 Q3496.5875,142.9922 3496.4125,142.9922 Q3496.25,142.9922 3496.15,142.9047 Q3496.05,142.8172 3496,142.5672 Q3495.975,142.4047 3495.9,142.3172 Q3495.7375,142.1297 3495.45,142.0297 Q3495.1625,141.9297 3494.875,141.9297 Q3494.5125,141.9297 3494.2125,142.0922 Q3493.9125,142.2422 3493.675,142.5922 Q3493.45,142.9422 3493.45,143.4297 L3493.45,143.9422 Q3493.45,144.5172 3493.8625,144.9047 Q3494.2875,145.2922 3495.0375,145.2922 Q3495.4875,145.2922 3495.7875,145.1797 Q3495.975,145.1047 3496.175,144.8922 Q3496.3,144.7672 3496.3625,144.7297 Q3496.4375,144.6922 3496.525,144.6922 Q3496.6875,144.6922 3496.8125,144.8172 Q3496.9375,144.9422 3496.9375,145.1047 Q3496.9375,145.2672 3496.7625,145.4547 Q3496.525,145.7297 3496.15,145.8797 Q3495.65,146.0922 3495.0375,146.0922 Q3494.325,146.0922 3493.7625,145.8047 Q3493.3,145.5672 3492.975,145.0672 Q3492.65,144.5547 3492.65,143.9547 L3492.65,143.4172 Q3492.65,142.7922 3492.9375,142.2547 Q3493.2375,141.7047 3493.75,141.4172 Q3494.2625,141.1297 3494.8375,141.1297 Q3495.1875,141.1297 3495.4875,141.2047 Q3495.8,141.2797 3496.0625,141.4422 Z " fill="#000000"/><text fill="#666666" font-family="Hack" font-size="8" font-style="italic" lengthAdjust="spacing" textLength="44.8" x="3517.2" y="139.4438">&#171;singleton&#187;</text><text fill="#000000" font-family="Hack" font-size="11.2" lengthAdjust="spacing" textLength="63.2" x="3508" y="153.5375">ParkingLotM</text><line style="stroke:#000000;stroke-width:0.8000000000000002;" x1="3387.6" x2="3671.6" y1="160.3484" y2="160.3484"/><text fill="#000000" font-family="Hack" font-size="11.2" lengthAdjust="spacing" textLength="268.8" x="3391.6" y="175.6344">+ParkingSpots : ObservableCollection &lt;ParkingSpot&gt;</text><text fill="#000000" font-family="Hack" font-size="11.2" lengthAdjust="spacing" textLength="276" x="3391.6" y="190.5313">+&#171;event&#187; SpotAvailabilityChanged : SpotAvailChanged</text><line style="stroke:#000000;stroke-width:0.8000000000000002;" x1="3387.6" x2="3671.6" y1="196.5422" y2="196.5422"/><text fill="#000000" font-family="Hack" font-size="11.2" lengthAdjust="spacing" textLength="241.6" x="3391.6" y="211.8281">+TakeSpot (spotNum : int, truckID : string) : void</text><text fill="#000000" font-family="Hack" font-size="11.2" lengthAdjust="spacing" textLength="160.8" x="3391.6" y="226.725">+FreeSpot (spotNum : int) : void</text><text fill="#000000" font-family="Hack" font-size="11.2" lengthAdjust="spacing" textLength="104" x="3391.6" y="241.6219">+GetFirstFree () : int</text><text fill="#000000" font-family="Hack" font-size="11.2" lengthAdjust="spacing" textLength="205.6" x="3391.6" y="256.5188">+TakeFirstFreeSpot (truckId : string) : int</text><text fill="#000000" font-family="Hack" font-size="11.2" lengthAdjust="spacing" textLength="87.2" x="3391.6" y="271.4156">+Initialize () : void</text><text fill="#000000" font-family="Hack" font-size="11.2" lengthAdjust="spacing" textLength="140.8" x="3391.6" y="286.3125">+RefreshAvailability () : void</text><text fill="#000000" font-family="Hack" font-size="11.2" lengthAdjust="spacing" textLength="156.8" x="3391.6" y="301.2094">+OnSpotAvailChanged () : void</text></g><!--class ParkingSpot--><g id="elem_ParkingSpot"><rect codeLine="1" fill="#FFFFFF" height="110.1813" id="ParkingSpot" rx="2" ry="2" style="stroke:#000000;stroke-width:0.8000000000000002;" width="185.6" x="3437.6" y="447.2109"/><ellipse cx="3496.8" cy="458.6594" fill="#FFFFFF" rx="6.4" ry="6.4" style="stroke:#000000;stroke-width:0.8000000000000002;"/><path d="M3497.6625,456.5219 Q3497.725,456.4219 3497.8125,456.3719 Q3497.9125,456.3219 3498.0125,456.3219 Q3498.1875,456.3219 3498.3,456.4469 Q3498.4125,456.5719 3498.4125,456.8594 L3498.4125,457.5344 Q3498.4125,457.8219 3498.3,457.9469 Q3498.1875,458.0719 3498.0125,458.0719 Q3497.85,458.0719 3497.75,457.9844 Q3497.65,457.8969 3497.6,457.6469 Q3497.575,457.4844 3497.5,457.3969 Q3497.3375,457.2094 3497.05,457.1094 Q3496.7625,457.0094 3496.475,457.0094 Q3496.1125,457.0094 3495.8125,457.1719 Q3495.5125,457.3219 3495.275,457.6719 Q3495.05,458.0219 3495.05,458.5094 L3495.05,459.0219 Q3495.05,459.5969 3495.4625,459.9844 Q3495.8875,460.3719 3496.6375,460.3719 Q3497.0875,460.3719 3497.3875,460.2594 Q3497.575,460.1844 3497.775,459.9719 Q3497.9,459.8469 3497.9625,459.8094 Q3498.0375,459.7719 3498.125,459.7719 Q3498.2875,459.7719 3498.4125,459.8969 Q3498.5375,460.0219 3498.5375,460.1844 Q3498.5375,460.3469 3498.3625,460.5344 Q3498.125,460.8094 3497.75,460.9594 Q3497.25,461.1719 3496.6375,461.1719 Q3495.925,461.1719 3495.3625,460.8844 Q3494.9,460.6469 3494.575,460.1469 Q3494.25,459.6344 3494.25,459.0344 L3494.25,458.4969 Q3494.25,457.8719 3494.5375,457.3344 Q3494.8375,456.7844 3495.35,456.4969 Q3495.8625,456.2094 3496.4375,456.2094 Q3496.7875,456.2094 3497.0875,456.2844 Q3497.4,456.3594 3497.6625,456.5219 Z " fill="#000000"/><text fill="#000000" font-family="Hack" font-size="11.2" lengthAdjust="spacing" textLength="61.6" x="3509.6" y="463.2969">ParkingSpot</text><line style="stroke:#000000;stroke-width:0.8000000000000002;" x1="3438.4" x2="3622.4" y1="470.1078" y2="470.1078"/><text fill="#000000" font-family="Hack" font-size="11.2" lengthAdjust="spacing" textLength="166.4" x="3442.4" y="485.3938">+SpotNum : int { get; private set;}</text><text fill="#000000" font-family="Hack" font-size="11.2" lengthAdjust="spacing" textLength="176" x="3442.4" y="500.2906">+Available : bool { get; private set;}</text><text fill="#000000" font-family="Hack" font-size="11.2" lengthAdjust="spacing" textLength="176" x="3442.4" y="515.1875">+TruckID : string { get; private set;}</text><line style="stroke:#000000;stroke-width:0.8000000000000002;" x1="3438.4" x2="3622.4" y1="521.1984" y2="521.1984"/><text fill="#000000" font-family="Hack" font-size="11.2" lengthAdjust="spacing" textLength="169.6" x="3442.4" y="536.4844">+TakeSpot (truckID : string) : void</text><text fill="#000000" font-family="Hack" font-size="11.2" lengthAdjust="spacing" textLength="95.2" x="3442.4" y="551.3813">+FreeSpot () : void</text></g><!--link Cargo to CargoType--><g id="link_Cargo_CargoType"><path codeLine="12" d="M908,488.0109 C932.36,488.0109 918.272,575.9149 907.2,597.6109 C897.232,617.1389 883.975,630.3297 866.159,642.6977 " fill="none" id="Cargo-to-CargoType" style="stroke:#000000;stroke-width:0.8000000000000002;"/><polygon fill="#000000" points="862.216,645.4349,869.9554,643.9577,865.5018,643.1539,866.3057,638.7004,862.216,645.4349" style="stroke:#000000;stroke-width:0.8000000000000002;"/></g><!--link Task to Route--><g id="link_Task_Route"><path codeLine="7" d="M845.84,267.7309 C882.816,311.2029 933.8176,371.155 976.2816,421.067 " fill="none" id="Task-to-Route" style="stroke:#000000;stroke-width:0.8000000000000002;"/><polygon fill="#000000" points="979.392,424.7229,977.1637,417.1655,976.8,421.6763,972.2892,421.3127,979.392,424.7229" style="stroke:#000000;stroke-width:0.8000000000000002;"/></g><!--link Task to Cargo--><g id="link_Task_Cargo"><path codeLine="8" d="M802.352,267.7309 C801.704,306.1869 800.8648,355.6036 800.0808,402.1476 " fill="none" id="Task-to-Cargo" style="stroke:#000000;stroke-width:0.8000000000000002;"/><polygon fill="#000000" points="800,406.9469,803.3208,399.8019,800.0674,402.9475,796.9217,399.6941,800,406.9469" style="stroke:#000000;stroke-width:0.8000000000000002;"/></g><!--reverse link Truck to AutomaticClutch--><g id="link_Truck_AutomaticClutch"><path codeLine="6" d="M2042.3758,327.3062 C2027.7518,343.0262 2021.312,347.4189 2004,359.2109 C1949.368,396.4429 1921.96,376.9069 1863.2,407.2109 C1833.648,422.4509 1803.344,443.8109 1779.312,462.3549 " fill="none" id="Truck-backto-AutomaticClutch" style="stroke:#000000;stroke-width:0.8000000000000002;"/><polygon fill="none" points="2052.184,316.7629,2038.8614,324.0368,2045.8902,330.5756,2052.184,316.7629" style="stroke:#000000;stroke-width:0.8000000000000002;"/></g><!--reverse link Truck to Container--><g id="link_Truck_Container"><path codeLine="6" d="M2072.5675,329.6255 C2049.5595,379.7375 2028.936,424.6589 2011.704,462.1789 " fill="none" id="Truck-backto-Container" style="stroke:#000000;stroke-width:0.8000000000000002;"/><polygon fill="none" points="2078.576,316.5389,2068.2053,327.6227,2076.9297,331.6283,2078.576,316.5389" style="stroke:#000000;stroke-width:0.8000000000000002;"/></g><!--reverse link Truck to Refrigerated--><g id="link_Truck_Refrigerated"><path codeLine="6" d="M2175.7417,329.612 C2198.8857,379.724 2219.648,424.6589 2236.984,462.1789 " fill="none" id="Truck-backto-Refrigerated" style="stroke:#000000;stroke-width:0.8000000000000002;"/><polygon fill="none" points="2169.704,316.5389,2171.3841,331.6246,2180.0994,327.5994,2169.704,316.5389" style="stroke:#000000;stroke-width:0.8000000000000002;"/></g><!--reverse link Truck to Tent--><g id="link_Truck_Tent"><path codeLine="6" d="M2252.9211,310.731 C2298.2731,343.491 2338.92,372.8749 2386.4,407.2109 C2411.424,425.3069 2439.144,445.3709 2462.56,462.3309 " fill="none" id="Truck-backto-Tent" style="stroke:#000000;stroke-width:0.8000000000000002;"/><polygon fill="none" points="2241.248,302.2989,2250.1104,314.622,2255.7318,306.84,2241.248,302.2989" style="stroke:#000000;stroke-width:0.8000000000000002;"/></g><!--link TruckTypeConverter to TruckType--><g id="link_TruckTypeConverter_TruckType"><path codeLine="10" d="M3090.4,231.2109 C3136.728,231.2109 3070.5991,372.7681 3031.0391,450.2321 " fill="none" id="TruckTypeConverter-to-TruckType" style="stroke:#000000;stroke-width:0.8000000000000002;"/><polygon fill="#000000" points="3028.856,454.5069,3034.9805,449.5501,3030.6753,450.9446,3029.2808,446.6393,3028.856,454.5069" style="stroke:#000000;stroke-width:0.8000000000000002;"/></g><!--link CargoTypeConverter to CargoType--><g id="link_CargoTypeConverter_CargoType"><path codeLine="8" d="M2877.6,231.2109 C2927.128,231.2109 2847.8333,393.6497 2810.5293,465.2737 " fill="none" id="CargoTypeConverter-to-CargoType" style="stroke:#000000;stroke-width:0.8000000000000002;"/><polygon fill="#000000" points="2808.312,469.5309,2814.476,464.6233,2810.1597,465.9833,2808.7998,461.667,2808.312,469.5309" style="stroke:#000000;stroke-width:0.8000000000000002;"/></g><!--link ParkingLotM to ParkingSpot--><g id="link_ParkingLotM_ParkingSpot"><path codeLine="12" d="M3673.6,170.4109 C3704.624,170.4109 3682.632,280.5869 3672.8,310.0109 C3655.432,361.9949 3621.2227,407.8384 3589.0947,443.4624 " fill="none" id="ParkingLotM-to-ParkingSpot" style="stroke:#000000;stroke-width:0.8000000000000002;"/><polygon fill="#000000" points="3585.88,447.0269,3593.0784,443.8233,3588.5589,444.0565,3588.3257,439.537,3585.88,447.0269" style="stroke:#000000;stroke-width:0.8000000000000002;"/></g><!--SRC=[fLHTQy8m57tFhuX_mFcoDnb87I9O65hsr9Uxz5g3-IZ9pS0D__lIMcaTR5RjIm8vvznpSqyweXrgvDeQo_nUcWeSQ2uKU3yZSl8Z42w5DHlvXNp2sDJJGU4BAwm86WtnRyRZbu8hfU7F4tPaqwSMmmnez1K8vAajKBNOaJH2XGBvEC_7UNEIfo1DOWqvgnIwSHMq-XERrERGvqciQOT1vqv-3fLTszZoC6W6Vdz2Dj2ktSm5iPzZNRLemMtpLoLhPbTz4FooK3uBP3MG58aA97QFYTL3YRFfNzuzCclSEbcY0yBYCQKiXgvJECQyTTV-QeBs_uHCUf4lvmiqjH5x9G-DsCb2TgZG3q4taUoX- -QMXj1ju-uS1R8bnjVdhYIZuqNlGB20cZHa87tcEoXPn51Oq-nwDyZlDRE20xhCWV7RlflBaRo1Yt-LyhQMpxDkoSsAnOrFeq-EwyfIUZTvKzbVeMC_]--></g></svg>